<?xml version="1.0" encoding="UTF-8"?>
<svg id="Layer_1" data-name="Layer 1" xmlns="http://www.w3.org/2000/svg" version="1.1" viewBox="0 0 8.5 8.5">
  <defs>
    <style>
      .cls-1 {
        fill: #061b3b;
      }

      .cls-1, .cls-2, .cls-3 {
        display: none;
      }

      .cls-1, .cls-3, .cls-4 {
        stroke-width: 0px;
      }

      .cls-2 {
        fill: none;
        stroke: #000;
        stroke-linecap: round;
        stroke-linejoin: round;
        stroke-width: 90px;
      }

      .cls-3 {
        fill: #ce1515;
      }

      .cls-4 {
        fill: #fff;
      }
    </style>
  </defs>
  <path id="arrow-up" class="cls-1" d="M3.2,1.1l.7-.7c.2-.2.5-.2.7,0l3.5,3.5c.2.2.2.5,0,.7l-.7.7c-.2.2-.5.2-.7,0l-2.5-2.5-2.4,2.5c-.2.2-.5.2-.7,0l-.7-.7c-.2-.2-.2-.5,0-.7L3.2,1.1Z"/>
  <path class="cls-2" d="M280.7,143.4L10.7-126.6-259.3,143.4"/>
  <polygon class="cls-3" points=".8 5 4.2 1.6 7.7 5 8.4 4.4 4.2 .3 .1 4.4 .8 5"/>
  <path class="cls-4" d="M1.6,4.6l2.7-2.7,2.7,2.7c.3.3.7.3,1,0s.3-.7,0-1L4.7.5c-.3-.3-.7-.3-1,0L.6,3.6c-.3.3-.3.7,0,1,.3.3.7.3,1,0Z"/>
</svg>