<?xml version="1.0" encoding="UTF-8"?>
<svg id="Layer_1" data-name="Layer 1" xmlns="http://www.w3.org/2000/svg" version="1.1" viewBox="0 0 8.1 5.2">
  <defs>
    <style>
      .cls-1 {
        fill: #061b3b;
      }

      .cls-1, .cls-2 {
        display: none;
      }

      .cls-1, .cls-2, .cls-3 {
        stroke-width: 0px;
      }

      .cls-2 {
        fill: #f41616;
      }

      .cls-3 {
        fill: #fff;
      }
    </style>
  </defs>
  <path id="arrow-down" class="cls-1" d="M5.1,4.4l-.7.7c-.2.2-.5.2-.7,0l-.7-.7L.1,1.6c-.2-.2-.2-.5,0-.7,0,0,0,0,0,0L.9.1C1.1,0,1.4,0,1.6.1l2.5,2.5L6.5.2c.2-.2.5-.2.7,0,0,0,0,0,0,0l.7.7c.2.2.2.5,0,.7l-2.8,2.8Z"/>
  <polygon class="cls-2" points="7.4 .6 4 3.9 .7 .6 0 1.2 4 5.2 8 1.2 7.4 .6"/>
  <path class="cls-3" d="M6.7.9l-2.7,2.7L1.4.9c-.3-.3-.7-.3-1,0s-.3.7,0,1l3.2,3.2c.3.3.7.3,1,0l3.2-3.2c.3-.3.3-.7,0-1-.3-.3-.7-.3-1,0Z"/>
</svg>